<svg width="82" height="20" viewBox="0 0 82 20" fill="none" xmlns="http://www.w3.org/2000/svg">
<path d="M0 10C0 4.47715 4.47715 0 10 0H72C77.5229 0 82 4.47715 82 10C82 15.5228 77.5229 20 72 20H10C4.47715 20 0 15.5228 0 10Z" fill="#E61587" fill-opacity="0.2"/>
<path d="M17.002 5.46875V11.2402C17.002 11.8809 16.8574 12.4141 16.5684 12.8398C16.2832 13.2656 15.9043 13.5859 15.4316 13.8008C14.9629 14.0117 14.4531 14.1172 13.9023 14.1172C13.3242 14.1172 12.8008 14.0117 12.332 13.8008C11.8672 13.5859 11.498 13.2656 11.2246 12.8398C10.9551 12.4141 10.8203 11.8809 10.8203 11.2402V5.46875H11.9453V11.2402C11.9453 11.6855 12.0273 12.0527 12.1914 12.3418C12.3555 12.6309 12.584 12.8477 12.877 12.9922C13.1699 13.1328 13.5117 13.2031 13.9023 13.2031C14.2969 13.2031 14.6406 13.1328 14.9336 12.9922C15.2266 12.8477 15.4531 12.6309 15.6133 12.3418C15.7773 12.0527 15.8594 11.6855 15.8594 11.2402V5.46875H17.002ZM19.6973 14H18.6016V7.66016H19.6387L19.6973 9.01367V14ZM18.9824 10.5664C18.9902 9.98828 19.1016 9.47266 19.3164 9.01953C19.5312 8.5625 19.8301 8.20312 20.2129 7.94141C20.5996 7.67578 21.0488 7.54297 21.5605 7.54297C21.9785 7.54297 22.3379 7.62109 22.6387 7.77734C22.9434 7.92969 23.1777 8.17383 23.3418 8.50977C23.5098 8.8457 23.5938 9.29102 23.5938 9.8457V14H22.498V9.83398C22.498 9.50195 22.4492 9.23438 22.3516 9.03125C22.2578 8.82812 22.1172 8.68164 21.9297 8.5918C21.7422 8.49805 21.5117 8.45117 21.2383 8.45117C20.9688 8.45117 20.7246 8.50781 20.5059 8.62109C20.2871 8.73438 20.0977 8.89062 19.9375 9.08984C19.7773 9.28906 19.6543 9.51758 19.5684 9.77539C19.4824 10.0293 19.4395 10.2988 19.4395 10.584L18.9824 10.5664ZM28.8906 7.66016H30.0098L27.7363 14H26.998L27.168 13.0273L28.8906 7.66016ZM27.5078 13.0566L27.6367 14H26.9043L24.6074 7.66016H25.7266L27.5078 13.0566ZM33.6953 14.1172C33.1055 14.1172 32.5918 13.9863 32.1543 13.7246C31.7207 13.459 31.3828 13.0957 31.1406 12.6348C30.9023 12.1738 30.7832 11.6465 30.7832 11.0527V10.8008C30.7832 10.1133 30.9141 9.52734 31.1758 9.04297C31.4414 8.55469 31.7852 8.18359 32.207 7.92969C32.6328 7.67188 33.082 7.54297 33.5547 7.54297C34.1641 7.54297 34.6602 7.67969 35.043 7.95312C35.4297 8.22266 35.7129 8.5918 35.8926 9.06055C36.0762 9.52539 36.168 10.0527 36.168 10.6426V11.1289H31.4336V10.25H35.0723V10.168C35.0566 9.88672 35 9.61328 34.9023 9.34766C34.8047 9.07812 34.6484 8.85742 34.4336 8.68555C34.2188 8.50977 33.9258 8.42188 33.5547 8.42188C33.2266 8.42188 32.9355 8.51562 32.6816 8.70312C32.4316 8.88672 32.2344 9.15625 32.0898 9.51172C31.9492 9.86328 31.8789 10.293 31.8789 10.8008V11.0527C31.8789 11.4551 31.9531 11.8223 32.1016 12.1543C32.25 12.4824 32.4648 12.7461 32.7461 12.9453C33.0273 13.1406 33.3633 13.2383 33.7539 13.2383C34.1367 13.2383 34.4609 13.1602 34.7266 13.0039C34.9922 12.8477 35.2246 12.6387 35.4238 12.377L36.0859 12.8926C35.8828 13.2051 35.5898 13.4883 35.207 13.7422C34.8281 13.9922 34.3242 14.1172 33.6953 14.1172ZM38.5293 14H37.4336V7.66016H38.5L38.5293 8.65625V14ZM40.5039 8.62695C40.4102 8.60742 40.3223 8.5957 40.2402 8.5918C40.1621 8.58398 40.0723 8.58008 39.9707 8.58008C39.6387 8.58008 39.3574 8.64844 39.127 8.78516C38.9004 8.92188 38.7246 9.11133 38.5996 9.35352C38.4746 9.5918 38.3965 9.86523 38.3652 10.1738L38.0547 10.3496C38.0547 9.83789 38.123 9.37109 38.2598 8.94922C38.3965 8.52344 38.6094 8.18359 38.8984 7.92969C39.1914 7.67188 39.5664 7.54297 40.0234 7.54297C40.0977 7.54297 40.1855 7.55273 40.2871 7.57227C40.3926 7.58789 40.4648 7.60547 40.5039 7.625V8.62695ZM42.6895 14H41.5938V7.66016H42.6895V14ZM41.5117 5.97266C41.5117 5.80078 41.5645 5.6543 41.6699 5.5332C41.7793 5.41211 41.9395 5.35156 42.1504 5.35156C42.3613 5.35156 42.5215 5.41211 42.6309 5.5332C42.7441 5.6543 42.8008 5.80078 42.8008 5.97266C42.8008 6.14062 42.7441 6.28516 42.6309 6.40625C42.5215 6.52344 42.3613 6.58203 42.1504 6.58203C41.9395 6.58203 41.7793 6.52344 41.6699 6.40625C41.5645 6.28516 41.5117 6.14062 41.5117 5.97266ZM44.9512 14V6.98633C44.9512 6.30664 45.1367 5.78516 45.5078 5.42188C45.8828 5.05859 46.3945 4.87695 47.043 4.87695C47.168 4.87695 47.293 4.88477 47.418 4.90039C47.543 4.91602 47.666 4.93945 47.7871 4.9707L47.7285 5.84375C47.6465 5.82812 47.5527 5.81641 47.4473 5.80859C47.3457 5.80078 47.2441 5.79688 47.1426 5.79688C46.7988 5.79688 46.5293 5.90039 46.334 6.10742C46.1426 6.31055 46.0469 6.60352 46.0469 6.98633V14H44.9512ZM47.3945 8.48633H43.9551V7.66016H47.3945V8.48633ZM49.7793 14H48.6836V7.66016H49.7793V14ZM48.6016 5.97266C48.6016 5.80078 48.6543 5.6543 48.7598 5.5332C48.8691 5.41211 49.0293 5.35156 49.2402 5.35156C49.4512 5.35156 49.6113 5.41211 49.7207 5.5332C49.834 5.6543 49.8906 5.80078 49.8906 5.97266C49.8906 6.14062 49.834 6.28516 49.7207 6.40625C49.6113 6.52344 49.4512 6.58203 49.2402 6.58203C49.0293 6.58203 48.8691 6.52344 48.7598 6.40625C48.6543 6.28516 48.6016 6.14062 48.6016 5.97266ZM54.1445 14.1172C53.5547 14.1172 53.041 13.9863 52.6035 13.7246C52.1699 13.459 51.832 13.0957 51.5898 12.6348C51.3516 12.1738 51.2324 11.6465 51.2324 11.0527V10.8008C51.2324 10.1133 51.3633 9.52734 51.625 9.04297C51.8906 8.55469 52.2344 8.18359 52.6562 7.92969C53.082 7.67188 53.5312 7.54297 54.0039 7.54297C54.6133 7.54297 55.1094 7.67969 55.4922 7.95312C55.8789 8.22266 56.1621 8.5918 56.3418 9.06055C56.5254 9.52539 56.6172 10.0527 56.6172 10.6426V11.1289H51.8828V10.25H55.5215V10.168C55.5059 9.88672 55.4492 9.61328 55.3516 9.34766C55.2539 9.07812 55.0977 8.85742 54.8828 8.68555C54.668 8.50977 54.375 8.42188 54.0039 8.42188C53.6758 8.42188 53.3848 8.51562 53.1309 8.70312C52.8809 8.88672 52.6836 9.15625 52.5391 9.51172C52.3984 9.86328 52.3281 10.293 52.3281 10.8008V11.0527C52.3281 11.4551 52.4023 11.8223 52.5508 12.1543C52.6992 12.4824 52.9141 12.7461 53.1953 12.9453C53.4766 13.1406 53.8125 13.2383 54.2031 13.2383C54.5859 13.2383 54.9102 13.1602 55.1758 13.0039C55.4414 12.8477 55.6738 12.6387 55.873 12.377L56.5352 12.8926C56.332 13.2051 56.0391 13.4883 55.6562 13.7422C55.2773 13.9922 54.7734 14.1172 54.1445 14.1172ZM61.8789 5H62.9746V14H61.9727L61.8789 12.7695V5ZM57.6191 10.7773C57.6191 10.1328 57.7227 9.56836 57.9297 9.08398C58.1406 8.5957 58.4336 8.2168 58.8086 7.94727C59.1836 7.67773 59.623 7.54297 60.127 7.54297C60.6582 7.54297 61.1016 7.66602 61.457 7.91211C61.8125 8.1543 62.0898 8.5 62.2891 8.94922C62.4922 9.39844 62.623 9.93359 62.6816 10.5547V11.123C62.623 11.7363 62.4941 12.2676 62.2949 12.7168C62.0957 13.1621 61.8164 13.5078 61.457 13.7539C61.1016 13.9961 60.6543 14.1172 60.1152 14.1172C59.6191 14.1172 59.1836 13.9785 58.8086 13.7012C58.4336 13.4199 58.1406 13.0371 57.9297 12.5527C57.7227 12.0684 57.6191 11.5176 57.6191 10.9004V10.7773ZM58.7148 10.9004C58.7148 11.3223 58.7715 11.707 58.8848 12.0547C59.002 12.4023 59.1836 12.6816 59.4297 12.8926C59.6758 13.0996 59.9941 13.2031 60.3848 13.2031C60.7441 13.2031 61.0391 13.127 61.2695 12.9746C61.5039 12.8223 61.6914 12.6211 61.832 12.3711C61.9727 12.1211 62.082 11.8496 62.1602 11.5566V10.1328C62.1133 9.91797 62.0449 9.71094 61.9551 9.51172C61.8691 9.30859 61.7559 9.12891 61.6152 8.97266C61.4785 8.8125 61.3086 8.68555 61.1055 8.5918C60.9062 8.49805 60.6699 8.45117 60.3965 8.45117C60.002 8.45117 59.6797 8.55664 59.4297 8.76758C59.1836 8.97852 59.002 9.26172 58.8848 9.61719C58.7715 9.96875 58.7148 10.3555 58.7148 10.7773V10.9004Z" fill="#E61587"/>
<circle cx="72" cy="10" r="3" fill="#E61587"/>
</svg>
