<svg width="70" height="20" viewBox="0 0 70 20" fill="none" xmlns="http://www.w3.org/2000/svg">
<path d="M0 10C0 4.47715 4.47715 0 10 0H60C65.5229 0 70 4.47715 70 10C70 15.5228 65.5229 20 60 20H10C4.47715 20 0 15.5228 0 10Z" fill="#39B54A" fill-opacity="0.2"/>
<path d="M16.252 6.46875H17.4883L14.3301 15H13.4512L13.7441 13.7109L16.252 6.46875ZM13.8906 13.7109L14.2012 15H13.3223L10.1699 6.46875H11.4062L13.8906 13.7109ZM21.1094 15.1172C20.5195 15.1172 20.0059 14.9863 19.5684 14.7246C19.1348 14.459 18.7969 14.0957 18.5547 13.6348C18.3164 13.1738 18.1973 12.6465 18.1973 12.0527V11.8008C18.1973 11.1133 18.3281 10.5273 18.5898 10.043C18.8555 9.55469 19.1992 9.18359 19.6211 8.92969C20.0469 8.67188 20.4961 8.54297 20.9688 8.54297C21.5781 8.54297 22.0742 8.67969 22.457 8.95312C22.8438 9.22266 23.127 9.5918 23.3066 10.0605C23.4902 10.5254 23.582 11.0527 23.582 11.6426V12.1289H18.8477V11.25H22.4863V11.168C22.4707 10.8867 22.4141 10.6133 22.3164 10.3477C22.2188 10.0781 22.0625 9.85742 21.8477 9.68555C21.6328 9.50977 21.3398 9.42188 20.9688 9.42188C20.6406 9.42188 20.3496 9.51562 20.0957 9.70312C19.8457 9.88672 19.6484 10.1562 19.5039 10.5117C19.3633 10.8633 19.293 11.293 19.293 11.8008V12.0527C19.293 12.4551 19.3672 12.8223 19.5156 13.1543C19.6641 13.4824 19.8789 13.7461 20.1602 13.9453C20.4414 14.1406 20.7773 14.2383 21.168 14.2383C21.5508 14.2383 21.875 14.1602 22.1406 14.0039C22.4062 13.8477 22.6387 13.6387 22.8379 13.377L23.5 13.8926C23.2969 14.2051 23.0039 14.4883 22.6211 14.7422C22.2422 14.9922 21.7383 15.1172 21.1094 15.1172ZM25.9434 15H24.8477V8.66016H25.9141L25.9434 9.65625V15ZM27.918 9.62695C27.8242 9.60742 27.7363 9.5957 27.6543 9.5918C27.5762 9.58398 27.4863 9.58008 27.3848 9.58008C27.0527 9.58008 26.7715 9.64844 26.541 9.78516C26.3145 9.92188 26.1387 10.1113 26.0137 10.3535C25.8887 10.5918 25.8105 10.8652 25.7793 11.1738L25.4688 11.3496C25.4688 10.8379 25.5371 10.3711 25.6738 9.94922C25.8105 9.52344 26.0234 9.18359 26.3125 8.92969C26.6055 8.67188 26.9805 8.54297 27.4375 8.54297C27.5117 8.54297 27.5996 8.55273 27.7012 8.57227C27.8066 8.58789 27.8789 8.60547 27.918 8.625V9.62695ZM30.1035 15H29.0078V8.66016H30.1035V15ZM28.9258 6.97266C28.9258 6.80078 28.9785 6.6543 29.084 6.5332C29.1934 6.41211 29.3535 6.35156 29.5645 6.35156C29.7754 6.35156 29.9355 6.41211 30.0449 6.5332C30.1582 6.6543 30.2148 6.80078 30.2148 6.97266C30.2148 7.14062 30.1582 7.28516 30.0449 7.40625C29.9355 7.52344 29.7754 7.58203 29.5645 7.58203C29.3535 7.58203 29.1934 7.52344 29.084 7.40625C28.9785 7.28516 28.9258 7.14062 28.9258 6.97266ZM32.3652 15V7.98633C32.3652 7.30664 32.5508 6.78516 32.9219 6.42188C33.2969 6.05859 33.8086 5.87695 34.457 5.87695C34.582 5.87695 34.707 5.88477 34.832 5.90039C34.957 5.91602 35.0801 5.93945 35.2012 5.9707L35.1426 6.84375C35.0605 6.82812 34.9668 6.81641 34.8613 6.80859C34.7598 6.80078 34.6582 6.79688 34.5566 6.79688C34.2129 6.79688 33.9434 6.90039 33.748 7.10742C33.5566 7.31055 33.4609 7.60352 33.4609 7.98633V15H32.3652ZM34.8086 9.48633H31.3691V8.66016H34.8086V9.48633ZM37.1934 15H36.0977V8.66016H37.1934V15ZM36.0156 6.97266C36.0156 6.80078 36.0684 6.6543 36.1738 6.5332C36.2832 6.41211 36.4434 6.35156 36.6543 6.35156C36.8652 6.35156 37.0254 6.41211 37.1348 6.5332C37.248 6.6543 37.3047 6.80078 37.3047 6.97266C37.3047 7.14062 37.248 7.28516 37.1348 7.40625C37.0254 7.52344 36.8652 7.58203 36.6543 7.58203C36.4434 7.58203 36.2832 7.52344 36.1738 7.40625C36.0684 7.28516 36.0156 7.14062 36.0156 6.97266ZM41.5586 15.1172C40.9688 15.1172 40.4551 14.9863 40.0176 14.7246C39.584 14.459 39.2461 14.0957 39.0039 13.6348C38.7656 13.1738 38.6465 12.6465 38.6465 12.0527V11.8008C38.6465 11.1133 38.7773 10.5273 39.0391 10.043C39.3047 9.55469 39.6484 9.18359 40.0703 8.92969C40.4961 8.67188 40.9453 8.54297 41.418 8.54297C42.0273 8.54297 42.5234 8.67969 42.9062 8.95312C43.293 9.22266 43.5762 9.5918 43.7559 10.0605C43.9395 10.5254 44.0312 11.0527 44.0312 11.6426V12.1289H39.2969V11.25H42.9355V11.168C42.9199 10.8867 42.8633 10.6133 42.7656 10.3477C42.668 10.0781 42.5117 9.85742 42.2969 9.68555C42.082 9.50977 41.7891 9.42188 41.418 9.42188C41.0898 9.42188 40.7988 9.51562 40.5449 9.70312C40.2949 9.88672 40.0977 10.1562 39.9531 10.5117C39.8125 10.8633 39.7422 11.293 39.7422 11.8008V12.0527C39.7422 12.4551 39.8164 12.8223 39.9648 13.1543C40.1133 13.4824 40.3281 13.7461 40.6094 13.9453C40.8906 14.1406 41.2266 14.2383 41.6172 14.2383C42 14.2383 42.3242 14.1602 42.5898 14.0039C42.8555 13.8477 43.0879 13.6387 43.2871 13.377L43.9492 13.8926C43.7461 14.2051 43.4531 14.4883 43.0703 14.7422C42.6914 14.9922 42.1875 15.1172 41.5586 15.1172ZM49.293 6H50.3887V15H49.3867L49.293 13.7695V6ZM45.0332 11.7773C45.0332 11.1328 45.1367 10.5684 45.3438 10.084C45.5547 9.5957 45.8477 9.2168 46.2227 8.94727C46.5977 8.67773 47.0371 8.54297 47.541 8.54297C48.0723 8.54297 48.5156 8.66602 48.8711 8.91211C49.2266 9.1543 49.5039 9.5 49.7031 9.94922C49.9062 10.3984 50.0371 10.9336 50.0957 11.5547V12.123C50.0371 12.7363 49.9082 13.2676 49.709 13.7168C49.5098 14.1621 49.2305 14.5078 48.8711 14.7539C48.5156 14.9961 48.0684 15.1172 47.5293 15.1172C47.0332 15.1172 46.5977 14.9785 46.2227 14.7012C45.8477 14.4199 45.5547 14.0371 45.3438 13.5527C45.1367 13.0684 45.0332 12.5176 45.0332 11.9004V11.7773ZM46.1289 11.9004C46.1289 12.3223 46.1855 12.707 46.2988 13.0547C46.416 13.4023 46.5977 13.6816 46.8438 13.8926C47.0898 14.0996 47.4082 14.2031 47.7988 14.2031C48.1582 14.2031 48.4531 14.127 48.6836 13.9746C48.918 13.8223 49.1055 13.6211 49.2461 13.3711C49.3867 13.1211 49.4961 12.8496 49.5742 12.5566V11.1328C49.5273 10.918 49.459 10.7109 49.3691 10.5117C49.2832 10.3086 49.1699 10.1289 49.0293 9.97266C48.8926 9.8125 48.7227 9.68555 48.5195 9.5918C48.3203 9.49805 48.084 9.45117 47.8105 9.45117C47.416 9.45117 47.0938 9.55664 46.8438 9.76758C46.5977 9.97852 46.416 10.2617 46.2988 10.6172C46.1855 10.9688 46.1289 11.3555 46.1289 11.7773V11.9004Z" fill="#39B54A"/>
<circle cx="60" cy="10" r="3" fill="#39B54A"/>
</svg>
